<svg xmlns="http://www.w3.org/2000/svg" xmlns:xlink="http://www.w3.org/1999/xlink" width="500" zoomAndPan="magnify" viewBox="0 0 375 374.999991" height="500" preserveAspectRatio="xMidYMid meet" version="1.0"><defs><filter x="0%" y="0%" width="100%" height="100%" id="9aad528ed1"><feColorMatrix values="0 0 0 0 1 0 0 0 0 1 0 0 0 0 1 0 0 0 1 0" color-interpolation-filters="sRGB"/></filter><g/><mask id="a11eb8742e"><g filter="url(#9aad528ed1)"><rect x="-37.5" width="450" fill="#000000" y="-37.499999" height="449.999989" fill-opacity="0.2784"/></g></mask><clipPath id="d45da29e02"><path d="M 0.226562 0.269531 L 140.476562 0.269531 L 140.476562 141.269531 L 0.226562 141.269531 Z M 0.226562 0.269531 " clip-rule="nonzero"/></clipPath><clipPath id="4d3123cc63"><rect x="0" width="141" y="0" height="142"/></clipPath></defs><rect x="-37.5" width="450" fill="#ffffff" y="-37.499999" height="449.999989" fill-opacity="1"/><rect x="-37.5" width="450" fill="#ffffff" y="-37.499999" height="449.999989" fill-opacity="1"/><rect x="-37.5" width="450" fill="#000000" y="-37.499999" height="449.999989" fill-opacity="1"/><g mask="url(#a11eb8742e)"><g transform="matrix(1, 0, 0, 1, 117, 109)"><g clip-path="url(#4d3123cc63)"><g clip-path="url(#d45da29e02)"><path fill="#ffde59" d="M 140.421875 65.347656 C 140.425781 65.296875 140.417969 65.246094 140.402344 65.199219 C 140.398438 65.195312 140.402344 65.195312 140.398438 65.191406 L 126.421875 28.421875 C 126.421875 28.417969 126.417969 28.414062 126.414062 28.410156 C 126.390625 28.355469 126.359375 28.304688 126.308594 28.265625 L 95.574219 3.769531 C 95.523438 3.730469 95.464844 3.703125 95.402344 3.691406 C 95.398438 3.691406 95.394531 3.691406 95.386719 3.691406 L 70.300781 0.273438 C 70.25 0.265625 70.199219 0.269531 70.148438 0.285156 L 58.191406 3.6875 L 57.851562 3.6875 C 57.785156 3.6875 57.71875 3.707031 57.664062 3.738281 L 57.359375 3.925781 L 27.925781 12.304688 C 27.917969 12.308594 27.910156 12.316406 27.902344 12.320312 C 27.863281 12.332031 27.828125 12.355469 27.792969 12.382812 C 27.78125 12.394531 27.769531 12.402344 27.757812 12.414062 C 27.75 12.421875 27.742188 12.425781 27.734375 12.433594 L 1.960938 45.953125 C 1.953125 45.960938 1.953125 45.972656 1.945312 45.984375 C 1.9375 46 1.925781 46.011719 1.917969 46.027344 C 1.914062 46.039062 1.914062 46.050781 1.910156 46.0625 C 1.902344 46.082031 1.898438 46.101562 1.894531 46.121094 C 1.894531 46.132812 1.886719 46.144531 1.886719 46.15625 L 0.265625 75.632812 C 0.261719 75.660156 0.265625 75.6875 0.269531 75.710938 L 2.644531 90.621094 C 2.648438 90.640625 2.65625 90.65625 2.664062 90.675781 C 2.667969 90.6875 2.667969 90.703125 2.671875 90.714844 C 2.671875 90.71875 2.675781 90.71875 2.675781 90.722656 C 2.679688 90.726562 2.679688 90.730469 2.679688 90.734375 L 14.679688 113.632812 C 14.699219 113.671875 14.730469 113.707031 14.761719 113.738281 L 28.835938 126.199219 C 28.859375 126.226562 28.882812 126.25 28.910156 126.265625 L 45.1875 137.253906 C 45.230469 137.285156 45.28125 137.304688 45.335938 137.3125 L 70.867188 141.292969 L 70.871094 141.292969 C 70.875 141.292969 70.875 141.292969 70.875 141.292969 C 70.894531 141.296875 70.914062 141.296875 70.933594 141.296875 C 70.957031 141.296875 70.984375 141.292969 71.007812 141.289062 C 71.007812 141.289062 71.007812 141.289062 71.011719 141.289062 C 71.011719 141.289062 71.015625 141.289062 71.015625 141.289062 C 71.015625 141.285156 71.019531 141.285156 71.019531 141.285156 C 71.023438 141.285156 71.023438 141.285156 71.023438 141.285156 C 71.023438 141.285156 71.027344 141.285156 71.027344 141.285156 C 71.027344 141.285156 71.027344 141.285156 71.03125 141.285156 C 71.03125 141.28125 71.03125 141.28125 71.035156 141.28125 L 112.753906 129.066406 C 112.769531 129.0625 112.78125 129.046875 112.792969 129.039062 C 112.835938 129.023438 112.867188 129 112.898438 128.96875 C 112.910156 128.953125 112.933594 128.949219 112.945312 128.9375 L 138.328125 95.398438 C 138.367188 95.347656 138.386719 95.285156 138.394531 95.222656 C 138.394531 95.214844 138.402344 95.210938 138.402344 95.203125 Z M 137.6875 94.886719 L 126.710938 97.667969 L 139.542969 67.472656 Z M 93.140625 90.609375 L 52.691406 76.347656 L 83.199219 54.339844 Z M 83.203125 53.152344 L 52.777344 33.214844 L 92.332031 21.878906 Z M 82.765625 53.746094 L 52.273438 75.742188 L 52.273438 33.761719 Z M 51.539062 75.871094 L 16.929688 58.855469 L 51.539062 33.800781 Z M 59.03125 116.667969 L 26.042969 98.148438 L 51.65625 77.140625 Z M 52.382812 77.019531 L 92.921875 91.3125 L 59.789062 116.71875 Z M 93.363281 91.898438 L 95.5 122.277344 L 60.453125 117.136719 Z M 93.835938 90.351562 L 83.910156 54.148438 L 117.660156 57.527344 Z M 118.132812 58.132812 L 125.617188 97.726562 L 94.3125 90.949219 Z M 126.214844 96.945312 L 118.816406 57.800781 L 139.566406 65.535156 Z M 118.183594 56.378906 L 93.722656 21.902344 L 125.625 28.832031 Z M 117.566406 56.78125 L 83.890625 53.410156 L 93.015625 22.171875 Z M 52.386719 32.5625 L 58.117188 4.597656 L 91.859375 21.246094 Z M 51.628906 32.601562 L 25.746094 23.929688 L 57.324219 4.804688 Z M 51.109375 33.203125 L 16.820312 58.027344 L 25.136719 24.503906 Z M 16.011719 58.226562 L 2.789062 46.167969 L 24.207031 25.199219 Z M 24.546875 23.835938 L 5.730469 42.257812 L 27.167969 14.378906 Z M 15.78125 59.011719 L 3.34375 88.800781 L 2.636719 47.023438 Z M 16.121094 60.105469 L 24.882812 97.640625 L 3.496094 90.339844 Z M 16.753906 59.585938 L 51.230469 76.539062 L 25.617188 97.546875 Z M 58.582031 117.257812 L 29.421875 125.488281 L 25.855469 98.886719 Z M 59.339844 117.8125 L 70.207031 140.277344 L 30.320312 126 Z M 71.070312 140.371094 L 60.171875 117.839844 L 94.953125 122.941406 Z M 96.21875 121.976562 L 94.085938 91.652344 L 125.253906 98.402344 Z M 125.132812 99.449219 L 112.457031 128.25 L 96.640625 122.582031 Z M 126.34375 98.519531 L 137.109375 95.792969 L 114.253906 125.988281 Z M 118.777344 57 L 126.140625 29.742188 L 139.425781 64.695312 Z M 95.613281 4.742188 L 124.617188 27.859375 L 93.285156 21.050781 Z M 70.277344 1.011719 L 89.914062 3.6875 L 60.882812 3.6875 Z M 94.917969 4.421875 L 92.582031 20.785156 L 59.429688 4.421875 Z M 25.476562 23.234375 L 28.328125 12.957031 L 54.972656 5.371094 Z M 1 75.636719 L 2.058594 56.390625 L 2.550781 85.371094 Z M 15.300781 113.226562 L 5.5625 94.648438 L 26.746094 123.371094 Z M 4 91.292969 L 25.058594 98.480469 L 28.558594 124.585938 Z M 31.734375 127.289062 L 67.15625 139.96875 L 45.527344 136.597656 Z M 95.957031 123.121094 L 111.464844 128.679688 L 72.851562 139.984375 Z M 95.957031 123.121094 " fill-opacity="1" fill-rule="nonzero"/></g></g></g></g><g fill="#ffffff" fill-opacity="1"><g transform="translate(84.197665, 236.343219)"><g><path d="M 42.617188 -57.785156 L 33.226562 -57.785156 C 32.722656 -57.785156 32.433594 -57.425781 32.433594 -57.136719 L 32.433594 -19.285156 C 32.433594 -13.433594 27.085938 -10.617188 21.667969 -10.617188 C 16.324219 -10.617188 11.558594 -13.652344 10.90625 -19.359375 L 10.90625 -47.3125 L 0 -47.3125 L 0 -19.285156 C 0 -7.367188 9.75 0 21.667969 0 C 33.949219 0 43.339844 -7.078125 43.339844 -19.285156 L 43.339844 -57.136719 C 43.339844 -57.425781 42.976562 -57.785156 42.617188 -57.785156 Z M 42.617188 -57.785156 "/></g></g></g><g fill="#ffffff" fill-opacity="1"><g transform="translate(129.700752, 236.343219)"><g><path d="M 33.734375 -34.238281 L 11.050781 -34.238281 L 11.050781 -47.3125 L 27.449219 -47.3125 L 27.449219 -57.785156 L 0.792969 -57.785156 C 0.359375 -57.785156 0 -57.425781 0 -57.136719 L 0 -0.648438 C 0 -0.359375 0.359375 0 0.792969 0 L 11.050781 0 L 11.050781 -23.765625 L 33.734375 -23.765625 C 34.164062 -23.765625 34.527344 -24.125 34.527344 -24.414062 L 34.527344 -33.589844 C 34.527344 -33.949219 34.164062 -34.238281 33.734375 -34.238281 Z M 33.734375 -34.238281 "/></g></g></g><g fill="#ffffff" fill-opacity="1"><g transform="translate(165.958767, 236.343219)"><g><path d="M 45.363281 -0.867188 L 23.402344 -57.351562 C 23.1875 -57.929688 22.175781 -57.929688 21.957031 -57.351562 L 0.0703125 -0.867188 C -0.144531 -0.433594 0.144531 0 0.792969 0 L 10.691406 0 C 10.980469 0 11.339844 -0.144531 11.414062 -0.433594 L 22.679688 -32.648438 L 34.09375 -0.433594 C 34.164062 -0.144531 34.527344 0 34.742188 0 L 44.710938 0 C 45.21875 0 45.578125 -0.433594 45.363281 -0.867188 Z M 45.363281 -0.867188 "/></g></g></g><g fill="#ffffff" fill-opacity="1"><g transform="translate(213.628659, 236.343219)"><g><path d="M 19.429688 -57.785156 L 0.722656 -57.785156 C 0.359375 -57.785156 0 -57.425781 0 -57.136719 L 0 -47.167969 L 19.429688 -47.167969 C 20.730469 -47.167969 27.953125 -46.804688 27.953125 -40.449219 C 27.953125 -34.09375 20.875 -33.949219 19.429688 -33.949219 L 0 -33.949219 L 0 -0.648438 C 0 -0.359375 0.359375 0 0.722656 0 L 10.113281 0 C 10.617188 0 10.835938 -0.359375 10.835938 -0.648438 L 10.835938 -23.257812 L 19.429688 -23.257812 C 20.804688 -23.257812 38.933594 -23.476562 38.933594 -40.449219 C 38.933594 -57.425781 21.742188 -57.785156 19.429688 -57.785156 Z M 19.429688 -57.785156 "/></g></g></g><g fill="#ffffff" fill-opacity="1"><g transform="translate(254.509209, 236.343219)"><g><path d="M 27.449219 -10.761719 L 11.050781 -10.761719 L 11.050781 -23.765625 L 33.734375 -23.765625 C 34.164062 -23.765625 34.527344 -24.125 34.527344 -24.414062 L 34.527344 -33.589844 C 34.527344 -33.949219 34.164062 -34.238281 33.734375 -34.238281 L 11.050781 -34.238281 L 11.050781 -47.3125 L 27.449219 -47.3125 L 27.449219 -57.785156 L 0.792969 -57.785156 C 0.359375 -57.785156 0 -57.425781 0 -57.136719 L 0 -0.648438 C 0 -0.359375 0.359375 0 0.792969 0 L 27.449219 0 Z M 27.449219 -10.761719 "/></g></g></g><g fill="#ffffff" fill-opacity="1"><g transform="translate(149.266804, 261.781389)"><g><path d="M 1.890625 -9.09375 L 8.625 -9.09375 L 8.625 -7.75 L 3.28125 -7.75 L 3.28125 -5.34375 L 7.921875 -5.34375 L 7.921875 -3.984375 L 3.28125 -3.984375 L 3.28125 -1.359375 L 8.625 -1.359375 L 8.625 0 L 1.890625 0 Z M 1.890625 -9.09375 "/></g></g></g><g fill="#ffffff" fill-opacity="1"><g transform="translate(159.494674, 261.781389)"><g><path d="M 10.21875 -9.09375 L 6.3125 0 L 4.765625 0 L 0.8125 -9.09375 L 2.40625 -9.09375 L 4.71875 -3.625 C 4.84375 -3.300781 4.984375 -2.957031 5.140625 -2.59375 C 5.304688 -2.226562 5.460938 -1.878906 5.609375 -1.546875 C 5.722656 -1.878906 5.851562 -2.226562 6 -2.59375 C 6.15625 -2.957031 6.296875 -3.296875 6.421875 -3.609375 L 8.5625 -9.09375 Z M 10.21875 -9.09375 "/></g></g></g><g fill="#ffffff" fill-opacity="1"><g transform="translate(170.5153, 261.781389)"><g><path d="M 1.890625 -9.09375 L 8.625 -9.09375 L 8.625 -7.75 L 3.28125 -7.75 L 3.28125 -5.34375 L 7.921875 -5.34375 L 7.921875 -3.984375 L 3.28125 -3.984375 L 3.28125 -1.359375 L 8.625 -1.359375 L 8.625 0 L 1.890625 0 Z M 1.890625 -9.09375 "/></g></g></g><g fill="#ffffff" fill-opacity="1"><g transform="translate(180.74317, 261.781389)"><g><path d="M 9.40625 -9.09375 L 10.8125 -9.09375 L 10.8125 0 L 9.453125 0 L 3.0625 -7.078125 C 3.113281 -6.515625 3.160156 -5.960938 3.203125 -5.421875 C 3.253906 -4.878906 3.28125 -4.332031 3.28125 -3.78125 L 3.28125 0 L 1.890625 0 L 1.890625 -9.09375 L 3.21875 -9.09375 L 9.625 -1.859375 C 9.570312 -2.285156 9.523438 -2.742188 9.484375 -3.234375 C 9.453125 -3.722656 9.429688 -4.210938 9.421875 -4.703125 C 9.410156 -5.203125 9.40625 -5.671875 9.40625 -6.109375 Z M 9.40625 -9.09375 "/></g></g></g><g fill="#ffffff" fill-opacity="1"><g transform="translate(193.440275, 261.781389)"><g><path d="M 3.984375 0 L 3.984375 -7.75 L 0.921875 -7.75 L 0.921875 -9.09375 L 8.53125 -9.09375 L 8.53125 -7.75 L 5.390625 -7.75 L 5.390625 0 Z M 3.984375 0 "/></g></g></g><g fill="#ffffff" fill-opacity="1"><g transform="translate(202.888379, 261.781389)"><g><path d="M 11.28125 -4.546875 C 11.28125 -3.890625 11.15625 -3.273438 10.90625 -2.703125 C 10.664062 -2.140625 10.316406 -1.644531 9.859375 -1.21875 C 9.410156 -0.789062 8.878906 -0.457031 8.265625 -0.21875 C 7.648438 0.0078125 6.976562 0.125 6.25 0.125 C 5.507812 0.125 4.828125 0.0078125 4.203125 -0.21875 C 3.585938 -0.457031 3.054688 -0.789062 2.609375 -1.21875 C 2.171875 -1.644531 1.828125 -2.140625 1.578125 -2.703125 C 1.328125 -3.273438 1.203125 -3.890625 1.203125 -4.546875 C 1.203125 -5.203125 1.328125 -5.8125 1.578125 -6.375 C 1.828125 -6.945312 2.171875 -7.445312 2.609375 -7.875 C 3.054688 -8.300781 3.585938 -8.632812 4.203125 -8.875 C 4.828125 -9.113281 5.507812 -9.234375 6.25 -9.234375 C 6.976562 -9.234375 7.648438 -9.113281 8.265625 -8.875 C 8.878906 -8.632812 9.410156 -8.300781 9.859375 -7.875 C 10.316406 -7.445312 10.664062 -6.945312 10.90625 -6.375 C 11.15625 -5.8125 11.28125 -5.203125 11.28125 -4.546875 Z M 9.859375 -4.546875 C 9.859375 -5.179688 9.703125 -5.75 9.390625 -6.25 C 9.085938 -6.75 8.664062 -7.140625 8.125 -7.421875 C 7.582031 -7.710938 6.957031 -7.859375 6.25 -7.859375 C 5.53125 -7.859375 4.898438 -7.710938 4.359375 -7.421875 C 3.816406 -7.140625 3.394531 -6.75 3.09375 -6.25 C 2.789062 -5.75 2.640625 -5.179688 2.640625 -4.546875 C 2.640625 -3.910156 2.789062 -3.34375 3.09375 -2.84375 C 3.394531 -2.351562 3.816406 -1.960938 4.359375 -1.671875 C 4.898438 -1.378906 5.53125 -1.234375 6.25 -1.234375 C 6.957031 -1.234375 7.582031 -1.378906 8.125 -1.671875 C 8.664062 -1.960938 9.085938 -2.359375 9.390625 -2.859375 C 9.703125 -3.359375 9.859375 -3.921875 9.859375 -4.546875 Z M 9.859375 -4.546875 "/></g></g></g><g fill="#ffffff" fill-opacity="1"><g transform="translate(215.377556, 261.781389)"><g><path d="M 2.125 -2.78125 C 2.582031 -2.25 3.054688 -1.835938 3.546875 -1.546875 C 4.035156 -1.265625 4.632812 -1.125 5.34375 -1.125 C 5.726562 -1.125 6.09375 -1.175781 6.4375 -1.28125 C 6.789062 -1.382812 7.082031 -1.535156 7.3125 -1.734375 C 7.539062 -1.941406 7.65625 -2.195312 7.65625 -2.5 C 7.65625 -2.925781 7.425781 -3.234375 6.96875 -3.421875 C 6.507812 -3.617188 5.863281 -3.78125 5.03125 -3.90625 C 4.007812 -4.0625 3.191406 -4.347656 2.578125 -4.765625 C 1.972656 -5.179688 1.671875 -5.796875 1.671875 -6.609375 C 1.671875 -7.148438 1.832031 -7.613281 2.15625 -8 C 2.488281 -8.394531 2.929688 -8.695312 3.484375 -8.90625 C 4.035156 -9.125 4.644531 -9.234375 5.3125 -9.234375 C 6.144531 -9.234375 6.863281 -9.09375 7.46875 -8.8125 C 8.082031 -8.53125 8.5625 -8.132812 8.90625 -7.625 L 7.9375 -6.625 C 7.65625 -7.03125 7.285156 -7.351562 6.828125 -7.59375 C 6.378906 -7.84375 5.863281 -7.96875 5.28125 -7.96875 C 4.675781 -7.96875 4.164062 -7.859375 3.75 -7.640625 C 3.34375 -7.421875 3.140625 -7.109375 3.140625 -6.703125 C 3.140625 -6.234375 3.359375 -5.898438 3.796875 -5.703125 C 4.234375 -5.515625 4.8125 -5.363281 5.53125 -5.25 C 6 -5.175781 6.445312 -5.082031 6.875 -4.96875 C 7.300781 -4.863281 7.679688 -4.71875 8.015625 -4.53125 C 8.359375 -4.34375 8.628906 -4.101562 8.828125 -3.8125 C 9.023438 -3.53125 9.125 -3.175781 9.125 -2.75 C 9.125 -2.175781 8.96875 -1.671875 8.65625 -1.234375 C 8.34375 -0.796875 7.898438 -0.457031 7.328125 -0.21875 C 6.753906 0.0078125 6.070312 0.125 5.28125 0.125 C 4.4375 0.125 3.675781 -0.0078125 3 -0.28125 C 2.320312 -0.5625 1.726562 -1.015625 1.21875 -1.640625 Z M 2.125 -2.78125 "/></g></g></g><g fill="#ffffff" fill-opacity="1"><g transform="translate(187.505083, 279.781388)"><g/></g></g></svg>